<svg version="1.1"
      xmlns="http://www.w3.org/2000/svg"
      xmlns:xlink="http://www.w3.org/1999/xlink"  id="snapshot-53950" width="500" height="500" viewBox="0 0 500 500"><desc>This image was made on Patterninja.com</desc><defs>
<!-- image 31464 -->
<g id="transformed-31464" data-image="31464" transform="translate(-124.5, -86) rotate(0, 124.5, 86)"><g><svg version="1.1" width="249px" height="172px" viewBox="0 0 249 172"><g id="original-31464"><svg xmlns="http://www.w3.org/2000/svg" viewBox="0 0 240.802 166.053" xmlns:xlink="http://www.w3.org/1999/xlink" version="1.1" preserveAspectRatio="xMidYMid meet">
  <path d="M92.5 7.938h55.804A9.26 9.26 0 0 1 157.458 0a9.26 9.26 0 0 1 9.156 7.938h56.058a9.26 9.26 0 0 1 8.87-6.615 9.26 9.26 0 0 1 9.26 9.26 9.26 9.26 0 0 1-7.969 9.16v54.13a9.26 9.26 0 0 1 7.938 9.153 9.26 9.26 0 0 1-9.26 9.26 9.26 9.26 0 0 1-9.157-7.937h-55.773a9.26 9.26 0 0 1-7.831 7.833v55.457a9.26 9.26 0 0 1 7.937 9.153 9.26 9.26 0 0 1-9.26 9.26 9.26 9.26 0 0 1-9.156-7.937H92.498a9.26 9.26 0 0 1-9.154 7.937 9.26 9.26 0 0 1-9.26-9.26 9.26 9.26 0 0 1 7.937-9.156V92.18a9.26 9.26 0 0 1-7.833-7.83H18.414a9.26 9.26 0 0 1-9.154 7.937 9.26 9.26 0 1 1 0-18.521 9.26 9.26 0 0 1 9.156 7.938H74.19a9.26 9.26 0 0 1 7.83-7.834V18.414a9.26 9.26 0 0 1-7.937-9.154A9.26 9.26 0 0 1 83.343 0 9.26 9.26 0 0 1 92.5 7.938zm-7.833 10.478v55.456a9.26 9.26 0 0 1 7.833 7.832h55.773a9.26 9.26 0 0 1 7.831-7.834V18.41a9.26 9.26 0 0 1-7.802-7.827H92.498a9.26 9.26 0 0 1-7.831 7.833zm74.114 0v55.461a9.26 9.26 0 0 1 7.802 7.827h55.773a9.26 9.26 0 0 1 7.863-7.838V19.737a9.26 9.26 0 0 1-7.938-9.154h-55.669a9.26 9.26 0 0 1-7.831 7.833zm-28.692 4.374c1.132.373 2.751 1.081 2.751 1.204 0 .173-1.63 4.938-1.689 4.938-.037 0-.462-.189-.946-.42-3.723-1.778-8.61-2.278-11.885-1.215-2.505.812-4.215 2.502-4.888 4.827-.16.55-.191.86-.188 1.846.004 1.415.136 2.025.68 3.133 1.091 2.222 3.387 3.787 8.63 5.883 4.313 1.725 6.765 3.168 8.766 5.164 1.763 1.758 2.809 3.778 3.265 6.31.235 1.305.217 3.838-.037 5.107-1.211 6.06-5.814 9.9-13.053 10.893-1.165.16-4.378.232-5.503.124-2.579-.248-5.109-.803-7.197-1.58-.911-.34-2.323-1.027-2.594-1.264l-.181-.158.752-2.49c.414-1.37.767-2.504.784-2.521.017-.017.464.196.994.474 2.272 1.191 4.594 1.95 7.188 2.347 1.384.213 4.212.213 5.376 0 4.272-.782 6.88-3.244 7.33-6.925.16-1.305-.04-3.002-.482-4.09-.568-1.4-1.81-2.83-3.334-3.845-1.106-.735-3.525-1.904-5.503-2.66-3.827-1.46-6.192-2.772-8.085-4.48-2.24-2.023-3.395-4.054-3.868-6.798-.224-1.299-.18-3.446.096-4.656 1.323-5.812 6.237-9.585 13.296-10.21.556-.05 1.143-.075 1.747-.077 2.617-.01 5.558.41 7.778 1.14zm-98.29-.416l3.363.022 8.029 12.658c4.416 6.961 8.615 13.634 9.332 14.827a130.932 130.932 0 0 1 5.08 9.244c.762 1.527 1.408 2.739 1.436 2.692.029-.046-.004-.781-.074-1.634-.13-1.592-.237-3.299-.398-6.333-.055-1.049-.107-7.627-.13-16.616l-.04-14.88h5.77v47.582l-3.111-.004-3.112-.003-7.662-12.244a5099.823 5099.823 0 0 1-8.84-14.156c-2.596-4.22-4.825-8.188-6.531-11.622-.672-1.352-1.032-1.989-1.106-1.96-.067.025-.095.13-.073.267.065.387.292 6.005.379 9.37.045 1.769.083 9.322.083 16.784v13.568h-5.756V22.35zm162.636 0h3.717l6.917 20.277a50088.1 50088.1 0 0 1 8.104 23.77l1.187 3.493h-6.556l-2.535-7.451-2.536-7.45h-16.878l-2.428 7.344-2.464 7.45c-.027.083-.745.107-3.21.107h-3.176l1.27-3.747c.698-2.06 4.33-12.757 8.07-23.77l6.8-20.024zm-.53 6.519c-1.262 4.866-1.645 6.109-4.393 14.252-1.278 3.787-2.324 6.92-2.324 6.964 0 .046 2.841.077 7.112.077 3.912 0 7.112-.028 7.112-.063s-1.121-3.366-2.492-7.403c-2.703-7.96-3.053-9.068-3.98-12.591-.337-1.285-.644-2.337-.682-2.337-.037 0-.196.495-.353 1.1zM84.667 92.183v55.455a9.26 9.26 0 0 1 7.833 7.832h55.774a9.26 9.26 0 0 1 7.83-7.834V92.18a9.26 9.26 0 0 1-7.833-7.83H92.498a9.26 9.26 0 0 1-7.831 7.832zm35.719 3.935h3.048V143.7h-6.096V96.118z" fill="rgba(70, 67, 67, 0.823)" stroke="none"/>
</svg>
</g></svg></g></g>
<!-- /image 31464 -->
</defs><rect x="0" y="0" width="500" height="500" fill="rgba(255, 255, 255, 0)"></rect><use xlink:href="#transformed-31464" transform="translate(-500, -500)"></use><use xlink:href="#transformed-31464" transform="translate(0, -500)"></use><use xlink:href="#transformed-31464" transform="translate(500, -500)"></use><use xlink:href="#transformed-31464" transform="translate(-500, 0)"></use><use xlink:href="#transformed-31464" transform="translate(0, 0)"></use><use xlink:href="#transformed-31464" transform="translate(500, 0)"></use><use xlink:href="#transformed-31464" transform="translate(-500, 500)"></use><use xlink:href="#transformed-31464" transform="translate(0, 500)"></use><use xlink:href="#transformed-31464" transform="translate(500, 500)"></use></svg>